<svg width="215" height="137" viewBox="0 0 215 137" fill="none" xmlns="http://www.w3.org/2000/svg">
<rect width="215" height="137" fill="#1E1E1E"/>
<path d="M58.04 64.32C62.0933 64.32 65.8267 65.3333 69.24 67.36C72.7067 69.3867 75.4533 72.1333 77.48 75.6C79.5067 79.0133 80.52 82.7467 80.52 86.8V97.52C80.52 101.573 79.5067 105.333 77.48 108.8C75.4533 112.213 72.7067 114.933 69.24 116.96C65.8267 118.987 62.0933 120 58.04 120H37.48V64.32H58.04ZM77.56 86.8C77.56 83.28 76.68 80.0267 74.92 77.04C73.16 74.0533 70.76 71.68 67.72 69.92C64.7333 68.16 61.48 67.28 57.96 67.28H40.44V117.04H57.96C61.48 117.04 64.7333 116.16 67.72 114.4C70.76 112.64 73.16 110.267 74.92 107.28C76.68 104.293 77.56 101.04 77.56 97.52V86.8Z" fill="white"/>
<path d="M62.84 76H10.36L36.6 19.12L62.84 76ZM15 73.04H58.2L36.6 26.16L15 73.04ZM75.8188 76V20.32H96.5388C100.592 20.32 104.325 21.3333 107.739 23.36C111.205 25.3867 113.952 28.1333 115.979 31.6C118.005 35.0133 119.019 38.7467 119.019 42.8V53.52C119.019 57.5733 118.005 61.3333 115.979 64.8C113.952 68.2133 111.205 70.9333 107.739 72.96C104.325 74.9867 100.592 76 96.5388 76H75.8188Z" fill="white"/>
<path d="M98.4 62.32H137.6V65.28H101.36V87.84H132.88V90.8H101.36V115.04H137.6V118H98.4V62.32Z" fill="#1E1E1E"/>
<path d="M100.4 64.32H139.6V67.28H103.36V89.84H134.88V92.8H103.36V117.04H139.6V120H100.4V64.32Z" fill="white"/>
<path d="M155.24 64.32L176.52 116.08L197.8 64.32H200.92L178.04 120H174.92L152.04 64.32H155.24Z" fill="white"/>
<rect x="151" y="63" width="8" height="10" fill="#1E1E1E"/>
<path d="M185.84 75H133.36L159.6 18.12L185.84 75ZM138 72.04H181.2L159.6 25.16L138 72.04Z" fill="white"/>
</svg>
